<svg width="25" height="24" viewBox="0 0 25 24" fill="none" xmlns="http://www.w3.org/2000/svg">
<path d="M23.0011 12.2332C23.0011 11.3699 22.9296 10.7399 22.7749 10.0865H12.7154V13.9832H18.6201C18.5011 14.9515 17.8582 16.4099 16.4296 17.3898L16.4096 17.5203L19.5902 19.935L19.8106 19.9565C21.8344 18.1249 23.0011 15.4298 23.0011 12.2332Z" fill="#4285F4"/>
<path d="M12.7146 22.5C15.6074 22.5 18.036 21.5666 19.8098 19.9567L16.4289 17.3899C15.5241 18.0083 14.3098 18.4399 12.7146 18.4399C9.88133 18.4399 7.4766 16.6083 6.61938 14.0766L6.49373 14.0871L3.18647 16.5954L3.14322 16.7132C4.9051 20.1433 8.52414 22.5 12.7146 22.5Z" fill="#34A853"/>
<path d="M6.62006 14.0767C6.39388 13.4233 6.26298 12.7233 6.26298 12C6.26298 11.2766 6.39388 10.5766 6.60816 9.92331L6.60217 9.78417L3.25346 7.23553L3.1439 7.28661C2.41774 8.70996 2.00107 10.3083 2.00107 12C2.00107 13.6916 2.41774 15.2899 3.1439 16.7133L6.62006 14.0767Z" fill="#FBBC05"/>
<path d="M12.7147 5.55997C14.7266 5.55997 16.0837 6.41163 16.8575 7.12335L19.8813 4.23C18.0242 2.53834 15.6075 1.5 12.7147 1.5C8.52417 1.5 4.90511 3.85665 3.14322 7.28662L6.6075 9.92332C7.47662 7.39166 9.88137 5.55997 12.7147 5.55997Z" fill="#EB4335"/>
</svg>
