<svg width="30" height="30" viewBox="0 0 30 30" fill="none" xmlns="http://www.w3.org/2000/svg">
<path d="M29.4405 0.562572C29.2019 0.320407 28.9023 0.147199 28.5734 0.0612674C28.2444 -0.0246646 27.8984 -0.020126 27.5718 0.0744028H27.5568L1.37833 8.01465C1.00653 8.1223 0.67623 8.34038 0.431218 8.63997C0.186207 8.93957 0.0380534 9.30653 0.00639757 9.69221C-0.0252583 10.0779 0.061078 10.4641 0.253962 10.7996C0.446846 11.1351 0.737169 11.4041 1.08645 11.5709L12.7565 17.249L18.4251 28.9091C18.5779 29.236 18.8209 29.5124 19.1257 29.7057C19.4305 29.899 19.7842 30.0011 20.1451 30C20.1996 30 20.2556 30 20.3101 29.9932C20.6967 29.9628 21.0647 29.8146 21.3645 29.5685C21.6642 29.3225 21.8813 28.9905 21.9864 28.6173L29.9247 2.4457V2.43071C30.0197 2.10459 30.0249 1.75885 29.9397 1.43003C29.8545 1.1012 29.682 0.801498 29.4405 0.562572ZM28.3493 1.98072L20.4179 28.1496V28.1646C20.4027 28.2188 20.3711 28.267 20.3274 28.3026C20.2838 28.3382 20.2302 28.3594 20.174 28.3633C20.1178 28.3671 20.0617 28.3535 20.0136 28.3243C19.9654 28.2951 19.9275 28.2517 19.905 28.2L14.3564 16.8031L21.0398 10.1214C21.1159 10.0454 21.1762 9.95516 21.2173 9.85584C21.2585 9.75652 21.2797 9.65007 21.2797 9.54257C21.2797 9.43506 21.2585 9.32861 21.2173 9.22929C21.1762 9.12998 21.1159 9.03973 21.0398 8.96372C20.9638 8.8877 20.8735 8.8274 20.7742 8.78626C20.6748 8.74512 20.5684 8.72395 20.4608 8.72395C20.3533 8.72395 20.2468 8.74512 20.1475 8.78626C20.0481 8.8274 19.9579 8.8877 19.8818 8.96372L13.1984 15.6454L1.78889 10.0914C1.73833 10.0679 1.6962 10.0294 1.6682 9.98115C1.64019 9.93292 1.62764 9.87727 1.63225 9.82169C1.63686 9.76611 1.6584 9.71329 1.69397 9.67033C1.72953 9.62737 1.77742 9.59634 1.83117 9.58143H1.84617L28.0219 1.648C28.0679 1.63509 28.1166 1.63486 28.1627 1.64734C28.2088 1.65983 28.2506 1.68456 28.2838 1.71891C28.3175 1.75257 28.3417 1.79444 28.3542 1.84037C28.3666 1.8863 28.3668 1.93468 28.3547 1.98072H28.3493Z" fill="white"/>
</svg>
