<svg width="30" height="30" viewBox="0 0 30 30" fill="none" xmlns="http://www.w3.org/2000/svg">
<path d="M29.506 27.1492L22.9179 20.5586C24.8932 17.9846 25.8155 14.7556 25.4975 11.5267C25.1796 8.29778 23.6452 5.31069 21.2058 3.17137C18.7663 1.03206 15.6044 -0.0992847 12.3615 0.00684469C9.11854 0.112974 6.03738 1.44863 3.74304 3.74286C1.4487 6.0371 0.112979 9.11812 0.00684501 12.3609C-0.0992893 15.6037 1.03211 18.7655 3.17152 21.2048C5.31094 23.6441 8.29817 25.1784 11.5272 25.4963C14.7563 25.8143 17.9854 24.8921 20.5595 22.9168L27.1532 29.5116C27.3081 29.6664 27.4919 29.7893 27.6942 29.8731C27.8966 29.9569 28.1134 30 28.3324 30C28.5514 30 28.7682 29.9569 28.9706 29.8731C29.1729 29.7893 29.3567 29.6664 29.5116 29.5116C29.6664 29.3567 29.7893 29.1729 29.8731 28.9706C29.9569 28.7683 30 28.5515 30 28.3325C30 28.1135 29.9569 27.8966 29.8731 27.6943C29.7893 27.492 29.6664 27.3082 29.5116 27.1533L29.506 27.1492ZM3.35743 12.7903C3.35743 10.9246 3.91069 9.10081 4.94725 7.54957C5.9838 5.99832 7.4571 4.78928 9.18083 4.07532C10.9046 3.36136 12.8013 3.17455 14.6312 3.53853C16.4611 3.9025 18.142 4.8009 19.4613 6.12013C20.7806 7.43935 21.679 9.12015 22.043 10.95C22.407 12.7798 22.2202 14.6764 21.5062 16.4001C20.7922 18.1237 19.5831 19.597 18.0318 20.6335C16.4804 21.67 14.6566 22.2232 12.7908 22.2232C10.2897 22.2207 7.8918 21.226 6.12325 19.4575C4.3547 17.6891 3.36 15.2912 3.35743 12.7903Z" fill="black"/>
</svg>
