<svg width="25" height="25" viewBox="0 0 25 25" fill="none" xmlns="http://www.w3.org/2000/svg">
<path d="M12.5 0C10.0277 0 7.61099 0.733112 5.55538 2.10663C3.49976 3.48015 1.89761 5.43238 0.951511 7.71645C0.00541604 10.0005 -0.242126 12.5139 0.24019 14.9386C0.722505 17.3634 1.91301 19.5907 3.66117 21.3388C5.40933 23.087 7.63661 24.2775 10.0614 24.7598C12.4861 25.2421 14.9995 24.9946 17.2835 24.0485C19.5676 23.1024 21.5199 21.5002 22.8934 19.4446C24.2669 17.389 25 14.9723 25 12.5C24.9965 9.18587 23.6784 6.00848 21.335 3.66503C18.9915 1.32158 15.8141 0.00349978 12.5 0ZM12.5 23.0769C10.4081 23.0769 8.36315 22.4566 6.62378 21.2944C4.88441 20.1322 3.52874 18.4803 2.7282 16.5476C1.92766 14.6149 1.7182 12.4883 2.12631 10.4365C2.53443 8.38482 3.54178 6.50019 5.02099 5.02099C6.5002 3.54178 8.38483 2.53442 10.4365 2.12631C12.4883 1.7182 14.6149 1.92765 16.5476 2.7282C18.4803 3.52874 20.1322 4.88441 21.2944 6.62377C22.4566 8.36314 23.0769 10.4081 23.0769 12.5C23.0737 15.3042 21.9584 17.9926 19.9755 19.9755C17.9926 21.9584 15.3042 23.0737 12.5 23.0769ZM16.2344 17.5168C16.1151 17.7422 15.9113 17.9109 15.6676 17.986C15.424 18.061 15.1605 18.0362 14.9351 17.9171C14.1865 17.5147 13.3499 17.3041 12.5 17.3041C11.6501 17.3041 10.8135 17.5147 10.0649 17.9171C9.84015 18.0301 9.58006 18.0505 9.34042 17.9739C9.10079 17.8974 8.9007 17.73 8.78306 17.5076C8.66543 17.2852 8.63963 17.0256 8.7112 16.7845C8.78276 16.5433 8.94599 16.3398 9.16587 16.2175C10.1932 15.6742 11.3378 15.3901 12.5 15.3901C13.6622 15.3901 14.8068 15.6742 15.8341 16.2175C16.0595 16.3368 16.2282 16.5407 16.3033 16.7843C16.3783 17.028 16.3535 17.2914 16.2344 17.5168ZM20.0805 10.7861C20.0211 10.8975 19.9402 10.9962 19.8426 11.0764C19.745 11.1566 19.6325 11.2168 19.5116 11.2535C19.3907 11.2903 19.2638 11.3028 19.1381 11.2904C19.0123 11.2781 18.8903 11.241 18.7788 11.1815C16.848 10.1473 14.6916 9.60614 12.5012 9.60614C10.3108 9.60614 8.1544 10.1473 6.22356 11.1815C5.99851 11.3017 5.73494 11.3275 5.49082 11.2534C5.24671 11.1792 5.04206 11.0111 4.92188 10.7861C4.8017 10.561 4.77585 10.2974 4.85001 10.0533C4.92417 9.8092 5.09226 9.60455 5.31731 9.48437C7.52715 8.30171 9.99479 7.68291 12.5012 7.68291C15.0076 7.68291 17.4753 8.30171 19.6851 9.48437C19.7968 9.54394 19.8956 9.62497 19.9759 9.72281C20.0562 9.82066 20.1164 9.93339 20.153 10.0546C20.1896 10.1757 20.202 10.3029 20.1893 10.4289C20.1767 10.5548 20.1393 10.677 20.0793 10.7885L20.0805 10.7861ZM18.1575 14.1514C18.0376 14.3765 17.8332 14.5447 17.5893 14.619C17.3455 14.6934 17.082 14.6679 16.857 14.5481C15.5165 13.833 14.0205 13.459 12.5012 13.459C10.9819 13.459 9.48595 13.833 8.14544 14.5481C7.92087 14.6628 7.66024 14.6847 7.41968 14.609C7.17913 14.5334 6.97791 14.3663 6.85938 14.1438C6.74084 13.9212 6.71448 13.661 6.78598 13.4192C6.85747 13.1773 7.02109 12.9733 7.24159 12.851C8.86034 11.9877 10.6667 11.5362 12.5012 11.5362C14.3357 11.5362 16.1421 11.9877 17.7608 12.851C17.8724 12.9104 17.9713 12.9913 18.0516 13.089C18.1319 13.1867 18.1921 13.2993 18.2289 13.4204C18.2656 13.5414 18.2781 13.6685 18.2656 13.7943C18.2532 13.9202 18.216 14.0424 18.1563 14.1538L18.1575 14.1514Z" fill="#828282"/>
</svg>
