<svg width="38" height="36" viewBox="0 0 38 36" fill="none" xmlns="http://www.w3.org/2000/svg">
<path d="M37.7926 32.538L28.6201 13.7149C28.4567 13.3801 28.2058 13.0987 27.8954 12.902C27.585 12.7053 27.2274 12.6011 26.8625 12.6011C26.4977 12.6011 26.1401 12.7053 25.8297 12.902C25.5193 13.0987 25.2684 13.3801 25.105 13.7149L21.7439 20.6055C19.4795 20.4024 17.2992 19.6282 15.3968 18.3518C17.7084 15.5932 19.1544 12.1829 19.5458 8.56707H22.9314C23.4527 8.56707 23.9527 8.35459 24.3213 7.97637C24.6899 7.59816 24.897 7.08518 24.897 6.5503C24.897 6.01542 24.6899 5.50245 24.3213 5.12423C23.9527 4.74602 23.4527 4.53354 22.9314 4.53354H14.414V2.51677C14.414 1.98189 14.207 1.46892 13.8383 1.0907C13.4697 0.71248 12.9698 0.5 12.4485 0.5C11.9272 0.5 11.4272 0.71248 11.0586 1.0907C10.69 1.46892 10.4829 1.98189 10.4829 2.51677V4.53354H1.96555C1.44425 4.53354 0.944309 4.74602 0.575697 5.12423C0.207084 5.50245 0 6.01542 0 6.5503C0 7.08518 0.207084 7.59816 0.575697 7.97637C0.944309 8.35459 1.44425 8.56707 1.96555 8.56707H15.5819C15.2131 11.1955 14.1268 13.6631 12.4485 15.6846C11.6295 14.7012 10.946 13.6069 10.4174 12.4325C10.3139 12.1855 10.1633 11.9623 9.97441 11.7759C9.78555 11.5895 9.56228 11.4437 9.31772 11.3472C9.07316 11.2506 8.81225 11.2052 8.55033 11.2136C8.28842 11.222 8.03079 11.2841 7.79259 11.3961C7.55439 11.5082 7.34044 11.668 7.16331 11.8661C6.98618 12.0643 6.84945 12.2968 6.76116 12.5499C6.67288 12.8031 6.63482 13.0718 6.64922 13.3402C6.66362 13.6087 6.7302 13.8715 6.84503 14.1132C7.5327 15.6474 8.42643 17.0753 9.50016 18.3551C7.26328 19.8659 4.64353 20.6699 1.96555 20.6677C1.44425 20.6677 0.944309 20.8802 0.575697 21.2584C0.207084 21.6366 0 22.1496 0 22.6844C0 23.2193 0.207084 23.7323 0.575697 24.1105C0.944309 24.4887 1.44425 24.7012 1.96555 24.7012C5.73947 24.7044 9.41447 23.463 12.4485 21.1601C14.6488 22.8215 17.193 23.9396 19.8832 24.4273L15.9308 32.538C15.8079 32.7756 15.7327 33.036 15.7093 33.3039C15.686 33.5718 15.7152 33.8417 15.7951 34.0979C15.8749 34.354 16.0039 34.5912 16.1745 34.7954C16.345 34.9996 16.5536 35.1668 16.7881 35.2871C17.0225 35.4074 17.278 35.4783 17.5396 35.4958C17.8012 35.5132 18.0635 35.4768 18.3111 35.3887C18.5588 35.3006 18.7867 35.1625 18.9816 34.9826C19.1765 34.8028 19.3343 34.5847 19.4459 34.3414L21.5244 30.0793H32.199L34.2759 34.3414C34.509 34.8199 34.9178 35.1838 35.4123 35.353C35.9069 35.5223 36.4467 35.483 36.9131 35.2439C37.3794 35.0047 37.7341 34.5853 37.899 34.0779C38.064 33.5704 38.0257 33.0165 37.7926 32.538ZM23.49 26.0457L26.8625 19.1265L30.2335 26.0457H23.49Z" fill="#E6E6E6"/>
</svg>
