<svg width="28" height="23" viewBox="0 0 28 23" fill="none" xmlns="http://www.w3.org/2000/svg">
<path d="M27.2913 3.85773C27.1735 3.37597 26.9478 2.93039 26.6329 2.55775C26.318 2.18511 25.9228 1.8961 25.48 1.71455C21.195 -0.0156769 14.375 4.97105e-06 14 4.97105e-06C13.625 4.97105e-06 6.805 -0.0156769 2.52 1.71455C2.0772 1.8961 1.68204 2.18511 1.36712 2.55775C1.05219 2.93039 0.826532 3.37597 0.70875 3.85773C0.385 5.16194 0 7.54557 0 11.5C0 15.4544 0.385 17.8381 0.70875 19.1423C0.826356 19.6243 1.05194 20.0701 1.36687 20.443C1.68181 20.8159 2.07706 21.1051 2.52 21.2868C6.625 22.9425 13.05 23 13.9175 23H14.0825C14.95 23 21.3787 22.9425 25.48 21.2868C25.9229 21.1051 26.3182 20.8159 26.6331 20.443C26.9481 20.0701 27.1736 19.6243 27.2913 19.1423C27.615 17.8355 28 15.4544 28 11.5C28 7.54557 27.615 5.16194 27.2913 3.85773ZM18.0737 12.352L13.0737 16.0111C12.9242 16.1207 12.7488 16.1853 12.5666 16.198C12.3844 16.2107 12.2023 16.171 12.0401 16.0832C11.878 15.9954 11.7419 15.8629 11.6467 15.7C11.5515 15.5371 11.5007 15.35 11.5 15.1591V7.84091C11.5001 7.64966 11.5503 7.46209 11.6452 7.29862C11.7402 7.13514 11.8762 7.00203 12.0385 6.91376C12.2008 6.82549 12.3831 6.78545 12.5656 6.79801C12.7482 6.81056 12.9239 6.87522 13.0737 6.98495L18.0737 10.644C18.2053 10.7405 18.3126 10.8686 18.3868 11.0176C18.4609 11.1666 18.4996 11.3321 18.4996 11.5C18.4996 11.6679 18.4609 11.8334 18.3868 11.9824C18.3126 12.1314 18.2053 12.2595 18.0737 12.356V12.352Z" fill="#828282"/>
</svg>
